{
  "accessors": [
    {
      "bufferView": 2,
      "componentType": 5126,
      "count": 4627,
      "max": [
        2.0204710960388184,
        12.27395248413086,
        1.8991270065307617
      ],
      "min": [
        -1.3342533111572266,
        10.459303855895996,
        0.04778420925140381
      ],
      "type": "VEC3"
    },
    {
      "bufferView": 2,
      "byteOffset": 55524,
      "componentType": 5126,
      "count": 4627,
      "type": "VEC3"
    },
    {
      "bufferView": 1,
      "componentType": 5126,
      "count": 4627,
      "type": "VEC2"
    },
    {
      "bufferView": 0,
      "componentType": 5125,
      "count": 6474,
      "type": "SCALAR"
    },
    {
      "bufferView": 2,
      "byteOffset": 111048,
      "componentType": 5126,
      "count": 2664,
      "max": [
        2.0204710960388184,
        8.73819351196289,
        1.9350459575653076
      ],
      "min": [
        -1.3342533111572266,
        6.923544883728027,
        0.04778420925140381
      ],
      "type": "VEC3"
    },
    {
      "bufferView": 2,
      "byteOffset": 143016,
      "componentType": 5126,
      "count": 2664,
      "type": "VEC3"
    },
    {
      "bufferView": 1,
      "byteOffset": 37016,
      "componentType": 5126,
      "count": 2664,
      "type": "VEC2"
    },
    {
      "bufferView": 0,
      "byteOffset": 25896,
      "componentType": 5125,
      "count": 3747,
      "type": "SCALAR"
    },
    {
      "bufferView": 2,
      "byteOffset": 174984,
      "componentType": 5126,
      "count": 2567,
      "max": [
        1.6890521049499512,
        4.73868989944458,
        1.7571702003479004
      ],
      "min": [
        -1.3342533111572266,
        2.9240410327911377,
        0.04778420925140381
      ],
      "type": "VEC3"
    },
    {
      "bufferView": 2,
      "byteOffset": 205788,
      "componentType": 5126,
      "count": 2567,
      "type": "VEC3"
    },
    {
      "bufferView": 1,
      "byteOffset": 58328,
      "componentType": 5126,
      "count": 2567,
      "type": "VEC2"
    },
    {
      "bufferView": 0,
      "byteOffset": 40884,
      "componentType": 5125,
      "count": 3576,
      "type": "SCALAR"
    },
    {
      "bufferView": 2,
      "byteOffset": 236592,
      "componentType": 5126,
      "count": 2497,
      "max": [
        2.0204713344573975,
        0.7758653163909912,
        1.6793458461761475
      ],
      "min": [
        -1.3342534303665161,
        -1.038783311843872,
        0.04778420925140381
      ],
      "type": "VEC3"
    },
    {
      "bufferView": 2,
      "byteOffset": 266556,
      "componentType": 5126,
      "count": 2497,
      "type": "VEC3"
    },
    {
      "bufferView": 1,
      "byteOffset": 78864,
      "componentType": 5126,
      "count": 2497,
      "type": "VEC2"
    },
    {
      "bufferView": 0,
      "byteOffset": 55188,
      "componentType": 5125,
      "count": 3492,
      "type": "SCALAR"
    },
    {
      "bufferView": 2,
      "byteOffset": 296520,
      "componentType": 5126,
      "count": 2467,
      "max": [
        2.0204710960388184,
        -3.2342021465301514,
        1.6793458461761475
      ],
      "min": [
        -1.3342530727386475,
        -5.0488505363464355,
        0.04778420925140381
      ],
      "type": "VEC3"
    },
    {
      "bufferView": 2,
      "byteOffset": 326124,
      "componentType": 5126,
      "count": 2467,
      "type": "VEC3"
    },
    {
      "bufferView": 1,
      "byteOffset": 98840,
      "componentType": 5126,
      "count": 2467,
      "type": "VEC2"
    },
    {
      "bufferView": 0,
      "byteOffset": 69156,
      "componentType": 5125,
      "count": 3444,
      "type": "SCALAR"
    },
    {
      "bufferView": 2,
      "byteOffset": 355728,
      "componentType": 5126,
      "count": 2453,
      "max": [
        2.2899961471557617,
        -7.257915019989014,
        1.6793458461761475
      ],
      "min": [
        -1.3342533111572266,
        -9.072563171386719,
        0.04778414964675903
      ],
      "type": "VEC3"
    },
    {
      "bufferView": 2,
      "byteOffset": 385164,
      "componentType": 5126,
      "count": 2453,
      "type": "VEC3"
    },
    {
      "bufferView": 1,
      "byteOffset": 118576,
      "componentType": 5126,
      "count": 2453,
      "type": "VEC2"
    },
    {
      "bufferView": 0,
      "byteOffset": 82932,
      "componentType": 5125,
      "count": 3432,
      "type": "SCALAR"
    },
    {
      "bufferView": 2,
      "byteOffset": 414600,
      "componentType": 5126,
      "count": 2438,
      "max": [
        4.5814433097839355,
        -11.394140243530273,
        1.6793458461761475
      ],
      "min": [
        -1.334253191947937,
        -13.208788871765137,
        0.04778420925140381
      ],
      "type": "VEC3"
    },
    {
      "bufferView": 2,
      "byteOffset": 443856,
      "componentType": 5126,
      "count": 2438,
      "type": "VEC3"
    },
    {
      "bufferView": 1,
      "byteOffset": 138200,
      "componentType": 5126,
      "count": 2438,
      "type": "VEC2"
    },
    {
      "bufferView": 0,
      "byteOffset": 96660,
      "componentType": 5125,
      "count": 3444,
      "type": "SCALAR"
    }
  ],
  "asset": {
    "generator": "fab-model-conversion",
    "version": "2.0"
  },
  "bufferViews": [
    {
      "buffer": 0,
      "byteLength": 110436,
      "target": 34963
    },
    {
      "buffer": 0,
      "byteLength": 157704,
      "byteOffset": 110436,
      "byteStride": 8,
      "target": 34962
    },
    {
      "buffer": 0,
      "byteLength": 473112,
      "byteOffset": 268140,
      "byteStride": 12,
      "target": 34962
    }
  ],
  "buffers": [
    {
      "byteLength": 741252,
      "uri": "scene.bin"
    }
  ],
  "images": [
    {
      "uri": "textures/Material_baseColor.jpeg"
    }
  ],
  "materials": [
    {
      "doubleSided": true,
      "name": "Material",
      "pbrMetallicRoughness": {
        "baseColorTexture": {
          "index": 0
        },
        "metallicFactor": 0.0,
        "roughnessFactor": 0.8211145618000169
      }
    }
  ],
  "meshes": [
    {
      "name": "Police_Material_0",
      "primitives": [
        {
          "attributes": {
            "NORMAL": 1,
            "POSITION": 0,
            "TEXCOORD_0": 2
          },
          "indices": 3,
          "material": 0,
          "mode": 4
        }
      ]
    },
    {
      "name": "Taxi_Material_0",
      "primitives": [
        {
          "attributes": {
            "NORMAL": 5,
            "POSITION": 4,
            "TEXCOORD_0": 6
          },
          "indices": 7,
          "material": 0,
          "mode": 4
        }
      ]
    },
    {
      "name": "SUV_Material_0",
      "primitives": [
        {
          "attributes": {
            "NORMAL": 9,
            "POSITION": 8,
            "TEXCOORD_0": 10
          },
          "indices": 11,
          "material": 0,
          "mode": 4
        }
      ]
    },
    {
      "name": "Pickup_Material_0",
      "primitives": [
        {
          "attributes": {
            "NORMAL": 13,
            "POSITION": 12,
            "TEXCOORD_0": 14
          },
          "indices": 15,
          "material": 0,
          "mode": 4
        }
      ]
    },
    {
      "name": "Car_Material_0",
      "primitives": [
        {
          "attributes": {
            "NORMAL": 17,
            "POSITION": 16,
            "TEXCOORD_0": 18
          },
          "indices": 19,
          "material": 0,
          "mode": 4
        }
      ]
    },
    {
      "name": "Van_Material_0",
      "primitives": [
        {
          "attributes": {
            "NORMAL": 21,
            "POSITION": 20,
            "TEXCOORD_0": 22
          },
          "indices": 23,
          "material": 0,
          "mode": 4
        }
      ]
    },
    {
      "name": "Limousine_Material_0",
      "primitives": [
        {
          "attributes": {
            "NORMAL": 25,
            "POSITION": 24,
            "TEXCOORD_0": 26
          },
          "indices": 27,
          "material": 0,
          "mode": 4
        }
      ]
    }
  ],
  "nodes": [
    {
      "children": [
        1
      ],
      "matrix": [
        1.0,
        0.0,
        0.0,
        0.0,
        0.0,
        2.220446049250313e-16,
        -1.0,
        0.0,
        0.0,
        1.0,
        2.220446049250313e-16,
        0.0,
        0.0,
        0.0,
        0.0,
        1.0
      ],
      "name": "Sketchfab_model"
    },
    {
      "children": [
        2
      ],
      "matrix": [
        0.009999999776482582,
        0.0,
        0.0,
        0.0,
        0.0,
        0.0,
        0.009999999776482582,
        0.0,
        0.0,
        -0.009999999776482582,
        0.0,
        0.0,
        0.0,
        0.0,
        0.0,
        1.0
      ],
      "name": "Cars.fbx"
    },
    {
      "children": [
        3,
        5,
        7,
        9,
        11,
        13,
        15
      ],
      "name": "RootNode"
    },
    {
      "children": [
        4
      ],
      "matrix": [
        100.0,
        0.0,
        0.0,
        0.0,
        0.0,
        -1.629206793918314e-05,
        -99.99999999999868,
        0.0,
        0.0,
        99.99999999999868,
        -1.629206793918314e-05,
        0.0,
        0.0,
        0.0,
        0.0,
        1.0
      ],
      "name": "Police"
    },
    {
      "mesh": 0,
      "name": "Police_Material_0"
    },
    {
      "children": [
        6
      ],
      "matrix": [
        100.0,
        0.0,
        0.0,
        0.0,
        0.0,
        -1.629206793918314e-05,
        -99.99999999999868,
        0.0,
        0.0,
        99.99999999999868,
        -1.629206793918314e-05,
        0.0,
        0.0,
        0.0,
        0.0,
        1.0
      ],
      "name": "Taxi"
    },
    {
      "mesh": 1,
      "name": "Taxi_Material_0"
    },
    {
      "children": [
        8
      ],
      "matrix": [
        100.0,
        0.0,
        0.0,
        0.0,
        0.0,
        -1.629206793918314e-05,
        -99.99999999999868,
        0.0,
        0.0,
        99.99999999999868,
        -1.629206793918314e-05,
        0.0,
        0.0,
        0.0,
        0.0,
        1.0
      ],
      "name": "SUV"
    },
    {
      "mesh": 2,
      "name": "SUV_Material_0"
    },
    {
      "children": [
        10
      ],
      "matrix": [
        100.0,
        0.0,
        0.0,
        0.0,
        0.0,
        -1.629206793918314e-05,
        -99.99999999999868,
        0.0,
        0.0,
        99.99999999999868,
        -1.629206793918314e-05,
        0.0,
        0.0,
        0.0,
        0.0,
        1.0
      ],
      "name": "Pickup"
    },
    {
      "mesh": 3,
      "name": "Pickup_Material_0"
    },
    {
      "children": [
        12
      ],
      "matrix": [
        100.0,
        0.0,
        0.0,
        0.0,
        0.0,
        -1.629206793918314e-05,
        -99.99999999999868,
        0.0,
        0.0,
        99.99999999999868,
        -1.629206793918314e-05,
        0.0,
        0.0,
        0.0,
        0.0,
        1.0
      ],
      "name": "Car"
    },
    {
      "mesh": 4,
      "name": "Car_Material_0"
    },
    {
      "children": [
        14
      ],
      "matrix": [
        100.0,
        0.0,
        0.0,
        0.0,
        0.0,
        -1.629206793918314e-05,
        -99.99999999999868,
        0.0,
        0.0,
        99.99999999999868,
        -1.629206793918314e-05,
        0.0,
        0.0,
        0.0,
        0.0,
        1.0
      ],
      "name": "Van"
    },
    {
      "mesh": 5,
      "name": "Van_Material_0"
    },
    {
      "children": [
        16
      ],
      "matrix": [
        100.0,
        0.0,
        0.0,
        0.0,
        0.0,
        -1.629206793918314e-05,
        -99.99999999999868,
        0.0,
        0.0,
        99.99999999999868,
        -1.629206793918314e-05,
        0.0,
        0.0,
        0.0,
        0.0,
        1.0
      ],
      "name": "Limousine"
    },
    {
      "mesh": 6,
      "name": "Limousine_Material_0"
    }
  ],
  "samplers": [
    {
      "magFilter": 9729,
      "minFilter": 9987,
      "wrapS": 10497,
      "wrapT": 10497
    }
  ],
  "scene": 0,
  "scenes": [
    {
      "name": "Sketchfab_Scene",
      "nodes": [
        0
      ]
    }
  ],
  "textures": [
    {
      "sampler": 0,
      "source": 0
    }
  ]
}
